<svg xmlns="http://www.w3.org/2000/svg" viewBox="0 0 512 512">
  <defs>
    <linearGradient id="bg" x1="70" y1="36" x2="442" y2="476" gradientUnits="userSpaceOnUse">
      <stop offset="0" stop-color="#0c342d"/>
      <stop offset="1" stop-color="#17614f"/>
    </linearGradient>
    <linearGradient id="paper" x1="178" y1="108" x2="346" y2="378" gradientUnits="userSpaceOnUse">
      <stop offset="0" stop-color="#fffdf3"/>
      <stop offset="1" stop-color="#eaf7ef"/>
    </linearGradient>
    <linearGradient id="lens" x1="232" y1="220" x2="426" y2="428" gradientUnits="userSpaceOnUse">
      <stop offset="0" stop-color="#8df5db"/>
      <stop offset="1" stop-color="#f2b766"/>
    </linearGradient>
    <filter id="shadow" x="-20%" y="-20%" width="140%" height="150%">
      <feDropShadow dx="0" dy="18" stdDeviation="18" flood-color="#06231e" flood-opacity="0.42"/>
    </filter>
  </defs>

  <rect width="512" height="512" rx="96" fill="url(#bg)"/>
  <path d="M72 396c92-25 152-31 219-10 61 19 104 6 150-38v80c-50 40-106 49-177 28-62-19-119-13-192 10z" fill="#1d765f" opacity="0.36"/>

  <g filter="url(#shadow)">
    <path d="M154 88h168l68 68v242c0 18-14 32-32 32H154c-18 0-32-14-32-32V120c0-18 14-32 32-32z" fill="url(#paper)"/>
    <path d="M322 88v54c0 14 12 26 26 26h42z" fill="#bcebdd"/>
  </g>

  <path d="M174 150h136v38h-48v120h-40V188h-48z" fill="#113f35"/>
  <path d="M181 336h102" stroke="#63d9c2" stroke-width="18" stroke-linecap="round"/>
  <path d="M181 378h82" stroke="#f2b766" stroke-width="18" stroke-linecap="round"/>
  <path d="M302 230c-24 0-39 14-39 35 0 20 15 35 39 35h40" fill="none" stroke="#2a846d" stroke-width="20" stroke-linecap="round" stroke-linejoin="round"/>
  <path d="M338 230h-36c24 0 39 14 39 35 0 20-15 35-39 35h36" fill="none" stroke="#2a846d" stroke-width="20" stroke-linecap="round" stroke-linejoin="round"/>

  <circle cx="310" cy="306" r="88" fill="#0f3b32" opacity="0.16"/>
  <circle cx="310" cy="306" r="75" fill="none" stroke="url(#lens)" stroke-width="34"/>
  <path d="M363 363l70 70" stroke="#f2b766" stroke-width="42" stroke-linecap="round"/>
  <path d="M268 262c17-15 41-22 65-13" stroke="#fbfff7" stroke-width="14" stroke-linecap="round" opacity="0.86"/>
  <path d="M254 306h111" stroke="#fbfff7" stroke-width="16" stroke-linecap="round" opacity="0.9"/>
</svg>
